<mxfile host="app.diagrams.net" modified="2021-11-29T21:04:52.540Z" agent="5.0 (Macintosh; Intel Mac OS X 10_15_7) AppleWebKit/537.36 (KHTML, like Gecko) Chrome/96.0.4664.55 Safari/537.36" etag="YkUymeGutQNJZAhx5uEd" version="15.7.4" type="github">
  <diagram id="M0YHzILM9sNUAD_iwBFg" name="Page-1">
    <mxGraphModel dx="2122" dy="800" grid="1" gridSize="10" guides="1" tooltips="1" connect="1" arrows="1" fold="1" page="1" pageScale="1" pageWidth="827" pageHeight="1169" math="0" shadow="0">
      <root>
        <mxCell id="0" />
        <mxCell id="1" parent="0" />
        <mxCell id="A3Im6yF8CqUOu0ioXcAd-8" style="edgeStyle=orthogonalEdgeStyle;rounded=0;orthogonalLoop=1;jettySize=auto;html=1;entryX=-0.2;entryY=0.271;entryDx=0;entryDy=0;entryPerimeter=0;" edge="1" parent="1" target="A3Im6yF8CqUOu0ioXcAd-7">
          <mxGeometry relative="1" as="geometry">
            <mxPoint x="90" y="179" as="sourcePoint" />
            <Array as="points">
              <mxPoint x="130" y="179" />
              <mxPoint x="130" y="179" />
            </Array>
          </mxGeometry>
        </mxCell>
        <mxCell id="A3Im6yF8CqUOu0ioXcAd-10" value="/index" style="edgeLabel;html=1;align=center;verticalAlign=middle;resizable=0;points=[];" vertex="1" connectable="0" parent="A3Im6yF8CqUOu0ioXcAd-8">
          <mxGeometry x="-0.125" y="-1" relative="1" as="geometry">
            <mxPoint as="offset" />
          </mxGeometry>
        </mxCell>
        <mxCell id="A3Im6yF8CqUOu0ioXcAd-7" value="" style="html=1;points=[];perimeter=orthogonalPerimeter;" vertex="1" parent="1">
          <mxGeometry x="220" y="160" width="10" height="70" as="geometry" />
        </mxCell>
        <mxCell id="A3Im6yF8CqUOu0ioXcAd-18" value="" style="shape=umlLifeline;participant=umlActor;perimeter=lifelinePerimeter;whiteSpace=wrap;html=1;container=1;collapsible=0;recursiveResize=0;verticalAlign=top;spacingTop=36;outlineConnect=0;" vertex="1" parent="1">
          <mxGeometry x="66" y="60" width="50" height="620" as="geometry" />
        </mxCell>
        <mxCell id="A3Im6yF8CqUOu0ioXcAd-38" value="" style="html=1;points=[];perimeter=orthogonalPerimeter;" vertex="1" parent="A3Im6yF8CqUOu0ioXcAd-18">
          <mxGeometry x="19" y="210" width="10" height="120" as="geometry" />
        </mxCell>
        <mxCell id="A3Im6yF8CqUOu0ioXcAd-36" style="edgeStyle=orthogonalEdgeStyle;rounded=0;orthogonalLoop=1;jettySize=auto;html=1;exitX=0.1;exitY=0.975;exitDx=0;exitDy=0;exitPerimeter=0;" edge="1" parent="A3Im6yF8CqUOu0ioXcAd-18" source="A3Im6yF8CqUOu0ioXcAd-34">
          <mxGeometry relative="1" as="geometry">
            <mxPoint x="390" y="230" as="sourcePoint" />
            <mxPoint x="15" y="230" as="targetPoint" />
            <Array as="points" />
          </mxGeometry>
        </mxCell>
        <mxCell id="A3Im6yF8CqUOu0ioXcAd-37" value="show login screen" style="edgeLabel;html=1;align=center;verticalAlign=middle;resizable=0;points=[];" vertex="1" connectable="0" parent="A3Im6yF8CqUOu0ioXcAd-36">
          <mxGeometry x="0.542" relative="1" as="geometry">
            <mxPoint as="offset" />
          </mxGeometry>
        </mxCell>
        <mxCell id="A3Im6yF8CqUOu0ioXcAd-30" style="edgeStyle=orthogonalEdgeStyle;rounded=0;orthogonalLoop=1;jettySize=auto;html=1;" edge="1" parent="1" source="A3Im6yF8CqUOu0ioXcAd-7" target="A3Im6yF8CqUOu0ioXcAd-20">
          <mxGeometry relative="1" as="geometry">
            <Array as="points">
              <mxPoint x="280" y="195" />
              <mxPoint x="280" y="200" />
            </Array>
          </mxGeometry>
        </mxCell>
        <mxCell id="A3Im6yF8CqUOu0ioXcAd-31" value="redirect to /token" style="edgeLabel;html=1;align=center;verticalAlign=middle;resizable=0;points=[];" vertex="1" connectable="0" parent="A3Im6yF8CqUOu0ioXcAd-30">
          <mxGeometry x="-0.3872" y="-1" relative="1" as="geometry">
            <mxPoint as="offset" />
          </mxGeometry>
        </mxCell>
        <mxCell id="A3Im6yF8CqUOu0ioXcAd-19" value="SPA" style="shape=umlLifeline;participant=umlEntity;perimeter=lifelinePerimeter;whiteSpace=wrap;html=1;container=1;collapsible=0;recursiveResize=0;verticalAlign=top;spacingTop=36;outlineConnect=0;" vertex="1" parent="1">
          <mxGeometry x="205" y="50" width="35" height="650" as="geometry" />
        </mxCell>
        <mxCell id="A3Im6yF8CqUOu0ioXcAd-52" value="" style="html=1;points=[];perimeter=orthogonalPerimeter;" vertex="1" parent="A3Im6yF8CqUOu0ioXcAd-19">
          <mxGeometry x="5" y="510" width="10" height="140" as="geometry" />
        </mxCell>
        <mxCell id="A3Im6yF8CqUOu0ioXcAd-20" value="CommentAPI" style="shape=umlLifeline;participant=umlEntity;perimeter=lifelinePerimeter;whiteSpace=wrap;html=1;container=1;collapsible=0;recursiveResize=0;verticalAlign=top;spacingTop=36;outlineConnect=0;" vertex="1" parent="1">
          <mxGeometry x="320" y="50" width="40" height="630" as="geometry" />
        </mxCell>
        <mxCell id="A3Im6yF8CqUOu0ioXcAd-29" value="" style="html=1;points=[];perimeter=orthogonalPerimeter;" vertex="1" parent="A3Im6yF8CqUOu0ioXcAd-20">
          <mxGeometry x="15" y="140" width="10" height="70" as="geometry" />
        </mxCell>
        <mxCell id="A3Im6yF8CqUOu0ioXcAd-46" style="edgeStyle=orthogonalEdgeStyle;rounded=0;orthogonalLoop=1;jettySize=auto;html=1;" edge="1" parent="A3Im6yF8CqUOu0ioXcAd-20" source="A3Im6yF8CqUOu0ioXcAd-29">
          <mxGeometry relative="1" as="geometry">
            <mxPoint x="24" y="200" as="targetPoint" />
            <Array as="points">
              <mxPoint x="-20" y="170" />
              <mxPoint x="-20" y="180" />
              <mxPoint x="-60" y="180" />
              <mxPoint x="-60" y="200" />
            </Array>
          </mxGeometry>
        </mxCell>
        <mxCell id="A3Im6yF8CqUOu0ioXcAd-47" value="Authenticator&lt;br&gt;starts" style="edgeLabel;html=1;align=center;verticalAlign=middle;resizable=0;points=[];" vertex="1" connectable="0" parent="A3Im6yF8CqUOu0ioXcAd-46">
          <mxGeometry x="-0.1071" y="-2" relative="1" as="geometry">
            <mxPoint x="29" y="2" as="offset" />
          </mxGeometry>
        </mxCell>
        <mxCell id="A3Im6yF8CqUOu0ioXcAd-48" value="" style="html=1;points=[];perimeter=orthogonalPerimeter;" vertex="1" parent="A3Im6yF8CqUOu0ioXcAd-20">
          <mxGeometry x="15" y="370" width="10" height="80" as="geometry" />
        </mxCell>
        <mxCell id="A3Im6yF8CqUOu0ioXcAd-49" style="edgeStyle=orthogonalEdgeStyle;rounded=0;orthogonalLoop=1;jettySize=auto;html=1;" edge="1" parent="A3Im6yF8CqUOu0ioXcAd-20" source="A3Im6yF8CqUOu0ioXcAd-48">
          <mxGeometry relative="1" as="geometry">
            <mxPoint x="20" y="434" as="targetPoint" />
            <Array as="points">
              <mxPoint x="-30" y="380" />
              <mxPoint x="-30" y="434" />
            </Array>
          </mxGeometry>
        </mxCell>
        <mxCell id="A3Im6yF8CqUOu0ioXcAd-50" value="SF authenticator: store JWT or access token" style="edgeLabel;html=1;align=center;verticalAlign=middle;resizable=0;points=[];" vertex="1" connectable="0" parent="A3Im6yF8CqUOu0ioXcAd-49">
          <mxGeometry x="-0.0139" y="-1" relative="1" as="geometry">
            <mxPoint as="offset" />
          </mxGeometry>
        </mxCell>
        <mxCell id="A3Im6yF8CqUOu0ioXcAd-56" value="" style="html=1;points=[];perimeter=orthogonalPerimeter;" vertex="1" parent="A3Im6yF8CqUOu0ioXcAd-20">
          <mxGeometry x="15" y="470" width="10" height="80" as="geometry" />
        </mxCell>
        <mxCell id="A3Im6yF8CqUOu0ioXcAd-57" style="edgeStyle=orthogonalEdgeStyle;rounded=0;orthogonalLoop=1;jettySize=auto;html=1;elbow=vertical;" edge="1" parent="A3Im6yF8CqUOu0ioXcAd-20" source="A3Im6yF8CqUOu0ioXcAd-56" target="A3Im6yF8CqUOu0ioXcAd-56">
          <mxGeometry relative="1" as="geometry">
            <Array as="points">
              <mxPoint x="-40" y="480" />
            </Array>
          </mxGeometry>
        </mxCell>
        <mxCell id="A3Im6yF8CqUOu0ioXcAd-59" value="generate One Time Token" style="edgeLabel;html=1;align=center;verticalAlign=middle;resizable=0;points=[];" vertex="1" connectable="0" parent="A3Im6yF8CqUOu0ioXcAd-57">
          <mxGeometry x="-0.2118" y="-2" relative="1" as="geometry">
            <mxPoint as="offset" />
          </mxGeometry>
        </mxCell>
        <mxCell id="A3Im6yF8CqUOu0ioXcAd-21" value="Azure AD" style="shape=umlLifeline;participant=umlEntity;perimeter=lifelinePerimeter;whiteSpace=wrap;html=1;container=1;collapsible=0;recursiveResize=0;verticalAlign=top;spacingTop=36;outlineConnect=0;" vertex="1" parent="1">
          <mxGeometry x="470" y="50" width="40" height="300" as="geometry" />
        </mxCell>
        <mxCell id="A3Im6yF8CqUOu0ioXcAd-34" value="" style="html=1;points=[];perimeter=orthogonalPerimeter;" vertex="1" parent="A3Im6yF8CqUOu0ioXcAd-21">
          <mxGeometry x="15" y="160" width="10" height="80" as="geometry" />
        </mxCell>
        <mxCell id="A3Im6yF8CqUOu0ioXcAd-33" style="edgeStyle=orthogonalEdgeStyle;rounded=0;orthogonalLoop=1;jettySize=auto;html=1;" edge="1" parent="1">
          <mxGeometry relative="1" as="geometry">
            <mxPoint x="345" y="258" as="sourcePoint" />
            <mxPoint x="485" y="258" as="targetPoint" />
            <Array as="points">
              <mxPoint x="380" y="258" />
              <mxPoint x="380" y="258" />
            </Array>
          </mxGeometry>
        </mxCell>
        <mxCell id="A3Im6yF8CqUOu0ioXcAd-35" value="oAuth flow" style="edgeLabel;html=1;align=center;verticalAlign=middle;resizable=0;points=[];" vertex="1" connectable="0" parent="A3Im6yF8CqUOu0ioXcAd-33">
          <mxGeometry x="-0.2143" y="-2" relative="1" as="geometry">
            <mxPoint as="offset" />
          </mxGeometry>
        </mxCell>
        <mxCell id="A3Im6yF8CqUOu0ioXcAd-45" style="edgeStyle=orthogonalEdgeStyle;rounded=0;orthogonalLoop=1;jettySize=auto;html=1;entryX=0.5;entryY=0.608;entryDx=0;entryDy=0;entryPerimeter=0;" edge="1" parent="1">
          <mxGeometry relative="1" as="geometry">
            <mxPoint x="340" y="423.03999999999996" as="targetPoint" />
            <mxPoint x="485" y="420" as="sourcePoint" />
            <Array as="points">
              <mxPoint x="485" y="423" />
            </Array>
          </mxGeometry>
        </mxCell>
        <mxCell id="A3Im6yF8CqUOu0ioXcAd-51" value="redirect to" style="edgeLabel;html=1;align=center;verticalAlign=middle;resizable=0;points=[];" vertex="1" connectable="0" parent="A3Im6yF8CqUOu0ioXcAd-45">
          <mxGeometry x="0.4189" y="-1" relative="1" as="geometry">
            <mxPoint as="offset" />
          </mxGeometry>
        </mxCell>
        <mxCell id="A3Im6yF8CqUOu0ioXcAd-40" value="" style="html=1;points=[];perimeter=orthogonalPerimeter;" vertex="1" parent="1">
          <mxGeometry x="485" y="330" width="10" height="100" as="geometry" />
        </mxCell>
        <mxCell id="A3Im6yF8CqUOu0ioXcAd-41" value="Login" style="html=1;strokeColor=none;fillColor=#0079D6;labelPosition=center;verticalLabelPosition=middle;verticalAlign=top;align=center;fontSize=12;outlineConnect=0;spacingTop=-6;fontColor=#FFFFFF;sketch=0;shape=mxgraph.sitemap.login;" vertex="1" parent="1">
          <mxGeometry x="-40" y="285" width="120" height="70" as="geometry" />
        </mxCell>
        <mxCell id="A3Im6yF8CqUOu0ioXcAd-42" style="edgeStyle=orthogonalEdgeStyle;rounded=0;orthogonalLoop=1;jettySize=auto;html=1;" edge="1" parent="1" source="A3Im6yF8CqUOu0ioXcAd-38" target="A3Im6yF8CqUOu0ioXcAd-40">
          <mxGeometry relative="1" as="geometry">
            <Array as="points">
              <mxPoint x="200" y="370" />
              <mxPoint x="200" y="370" />
            </Array>
          </mxGeometry>
        </mxCell>
        <mxCell id="A3Im6yF8CqUOu0ioXcAd-43" value="POST &amp;lt;user/pwd&amp;gt;" style="edgeLabel;html=1;align=center;verticalAlign=middle;resizable=0;points=[];" vertex="1" connectable="0" parent="A3Im6yF8CqUOu0ioXcAd-42">
          <mxGeometry x="-0.5897" relative="1" as="geometry">
            <mxPoint as="offset" />
          </mxGeometry>
        </mxCell>
        <mxCell id="A3Im6yF8CqUOu0ioXcAd-53" style="edgeStyle=orthogonalEdgeStyle;rounded=0;orthogonalLoop=1;jettySize=auto;html=1;" edge="1" parent="1">
          <mxGeometry relative="1" as="geometry">
            <mxPoint x="340" y="601" as="sourcePoint" />
            <mxPoint x="220" y="603" as="targetPoint" />
            <Array as="points">
              <mxPoint x="340" y="603" />
            </Array>
          </mxGeometry>
        </mxCell>
        <mxCell id="A3Im6yF8CqUOu0ioXcAd-55" value="redirect /index?ott=1234" style="edgeLabel;html=1;align=center;verticalAlign=middle;resizable=0;points=[];" vertex="1" connectable="0" parent="A3Im6yF8CqUOu0ioXcAd-53">
          <mxGeometry x="0.1639" y="-2" relative="1" as="geometry">
            <mxPoint y="17" as="offset" />
          </mxGeometry>
        </mxCell>
        <mxCell id="A3Im6yF8CqUOu0ioXcAd-65" style="edgeStyle=orthogonalEdgeStyle;rounded=0;orthogonalLoop=1;jettySize=auto;html=1;" edge="1" parent="1" source="A3Im6yF8CqUOu0ioXcAd-61" target="A3Im6yF8CqUOu0ioXcAd-64">
          <mxGeometry relative="1" as="geometry">
            <Array as="points">
              <mxPoint x="250" y="760" />
              <mxPoint x="250" y="760" />
            </Array>
          </mxGeometry>
        </mxCell>
        <mxCell id="A3Im6yF8CqUOu0ioXcAd-66" value="JWT Token" style="edgeLabel;html=1;align=center;verticalAlign=middle;resizable=0;points=[];" vertex="1" connectable="0" parent="A3Im6yF8CqUOu0ioXcAd-65">
          <mxGeometry x="0.3043" relative="1" as="geometry">
            <mxPoint as="offset" />
          </mxGeometry>
        </mxCell>
        <mxCell id="A3Im6yF8CqUOu0ioXcAd-61" value="" style="html=1;points=[];perimeter=orthogonalPerimeter;" vertex="1" parent="1">
          <mxGeometry x="335" y="682" width="10" height="80" as="geometry" />
        </mxCell>
        <mxCell id="A3Im6yF8CqUOu0ioXcAd-62" style="edgeStyle=orthogonalEdgeStyle;rounded=0;orthogonalLoop=1;jettySize=auto;html=1;" edge="1" parent="1" source="A3Im6yF8CqUOu0ioXcAd-52">
          <mxGeometry relative="1" as="geometry">
            <mxPoint x="336" y="690" as="targetPoint" />
            <Array as="points">
              <mxPoint x="336" y="690" />
            </Array>
          </mxGeometry>
        </mxCell>
        <mxCell id="A3Im6yF8CqUOu0ioXcAd-63" value="GET token/?ott=1234" style="edgeLabel;html=1;align=center;verticalAlign=middle;resizable=0;points=[];" vertex="1" connectable="0" parent="A3Im6yF8CqUOu0ioXcAd-62">
          <mxGeometry x="-0.4828" y="-2" relative="1" as="geometry">
            <mxPoint as="offset" />
          </mxGeometry>
        </mxCell>
        <mxCell id="A3Im6yF8CqUOu0ioXcAd-64" value="" style="html=1;points=[];perimeter=orthogonalPerimeter;" vertex="1" parent="1">
          <mxGeometry x="210" y="740" width="10" height="80" as="geometry" />
        </mxCell>
      </root>
    </mxGraphModel>
  </diagram>
</mxfile>
